<?xml version="1.0" encoding="UTF-8" standalone="no"?><!--Created with Vectornator (http://vectornator.io/)--><svg stroke-miterlimit="10" style="clip-rule:evenodd;fill-rule:nonzero;stroke-linecap:round;stroke-linejoin:round" version="1.1" viewBox="0 0 368.29315 273.53119" xml:space="preserve" id="svg7" sodipodi:docname="mumble-logo.svg" inkscape:version="1.2.2 (b0a84865, 2022-12-01)" xmlns:inkscape="http://www.inkscape.org/namespaces/inkscape" xmlns:sodipodi="http://sodipodi.sourceforge.net/DTD/sodipodi-0.dtd" xmlns="http://www.w3.org/2000/svg" xmlns:svg="http://www.w3.org/2000/svg" xmlns:rdf="http://www.w3.org/1999/02/22-rdf-syntax-ns#" xmlns:cc="http://creativecommons.org/ns#" xmlns:dc="http://purl.org/dc/elements/1.1/" width="1em" height="1em"><title id="title143">Mumble Logo</title><sodipodi:namedview id="namedview9" pagecolor="#ffffff" bordercolor="#666666" borderopacity="1.0" inkscape:showpageshadow="2" inkscape:pageopacity="0.0" inkscape:pagecheckerboard="false" inkscape:deskcolor="#d1d1d1" showgrid="false" inkscape:zoom="1.3716617" inkscape:cx="207.77718" inkscape:cy="126.12439" inkscape:window-width="1512" inkscape:window-height="842" inkscape:window-x="0" inkscape:window-y="38" inkscape:window-maximized="0" inkscape:current-layer="svg7"/><defs id="defs2"/><g id="Layer-1" transform="translate(-1.5108607,-3.5829071)"><path d="M 162.38,5.10972 C 147.122,4.55356 130.365,12.5371 111.786,34.766 106.889,40.6244 97.5927,52.252 92.9657,59.5891 83.8726,55.3596 67.2002,44.7085 54.4803,42.9295 33.3252,39.9708 19.0167,45.836 13.5488,56.114 4.93282,72.3091 30.8284,88.8385 70.1101,96.0633 34.3052,96.3085 1.42463,102.038 3.06803,123.147 4.15199,137.069 29.184,153.489 60.4076,139.051 34.8971,191.347 17.2502,272.838 77.6648,273.322 c 63.1592,0.506 66.2102,-56.95 76.3042,-109.169 0.266,-1.379 21.24,131.633 75.216,107.644 13.881,-6.17 29.853,-32.179 30.409,-70.019 13.274,32.146 40.965,73.554 66.004,73.832 40.605,0.451 48.336,-36.01 39.313,-102.782 C 358.91,128.424 328.151,45.7117 275.505,44.8285 257.004,44.5181 243.529,52.3806 234.661,68.0472 228.018,55.3647 221.114,44.6301 214.536,37.4535 199.12,20.6366 181.997,5.82467 162.38,5.10972 Z" fill="#48d587" fill-rule="nonzero" opacity="1" stroke="#207961" stroke-linecap="round" stroke-linejoin="round" stroke-width="3" id="path4"/></g><metadata id="metadata141"><rdf:RDF><cc:License rdf:about="http://creativecommons.org/licenses/by-sa/4.0/"><cc:permits rdf:resource="http://creativecommons.org/ns#Reproduction"/><cc:permits rdf:resource="http://creativecommons.org/ns#Distribution"/><cc:requires rdf:resource="http://creativecommons.org/ns#Notice"/><cc:requires rdf:resource="http://creativecommons.org/ns#Attribution"/><cc:permits rdf:resource="http://creativecommons.org/ns#DerivativeWorks"/><cc:requires rdf:resource="http://creativecommons.org/ns#ShareAlike"/></cc:License><cc:Work rdf:about=""><cc:license rdf:resource="http://creativecommons.org/licenses/by-sa/4.0/"/><dc:title>Mumble Logo</dc:title><dc:creator><cc:Agent><dc:title>codemonger</dc:title></cc:Agent></dc:creator><dc:relation>https://codemonger.io</dc:relation></cc:Work></rdf:RDF></metadata></svg>